<?xml version="1.0" standalone="no"?>
<!DOCTYPE svg PUBLIC "-//W3C//DTD SVG 20010904//EN"
 "http://www.w3.org/TR/2001/REC-SVG-20010904/DTD/svg10.dtd">
<svg version="1.0" xmlns="http://www.w3.org/2000/svg"
 width="300.000000pt" height="150.000000pt" viewBox="0 0 300.000000 150.000000"
 preserveAspectRatio="xMidYMid meet">

<g transform="translate(0.000000,150.000000) scale(0.100000,-0.100000)"
fill="#000000" stroke="none">
<path d="M1011 1126 c-53 -18 -126 -86 -143 -135 -8 -23 -13 -91 -12 -186 0
-137 2 -154 23 -197 62 -122 223 -163 337 -85 72 50 96 106 102 232 7 155 -3
226 -41 282 -57 84 -167 121 -266 89z m157 -130 l37 -34 3 -123 c4 -148 -1
-179 -37 -218 -38 -40 -89 -49 -138 -24 -61 31 -73 67 -73 211 0 175 26 221
128 222 35 0 49 -6 80 -34z"/>
<path d="M1675 1128 c-47 -17 -104 -66 -128 -112 -30 -57 -38 -284 -12 -371
35 -123 167 -194 286 -153 102 34 156 121 161 258 l3 85 -117 3 -118 3 0 -45
0 -45 63 -3 c59 -3 62 -4 65 -30 5 -42 -32 -103 -73 -123 -71 -33 -157 11
-175 90 -13 55 -12 202 1 249 6 22 25 52 41 68 25 23 39 28 80 28 45 0 54 -4
84 -36 19 -19 34 -40 34 -45 0 -11 97 -12 103 -1 11 16 -24 87 -60 124 -57 59
-161 83 -238 56z"/>
<path d="M2335 1126 c-23 -9 -60 -36 -87 -65 -57 -62 -67 -104 -61 -280 4
-144 18 -186 81 -243 126 -114 334 -47 373 120 12 51 11 247 -2 302 -23 101
-102 168 -206 176 -36 3 -73 -1 -98 -10z m144 -111 c49 -25 61 -67 61 -212 0
-147 -13 -183 -75 -209 -60 -25 -137 4 -161 61 -19 46 -19 253 0 299 29 69
107 96 175 61z"/>
<path d="M262 808 l3 -323 201 -3 c224 -3 211 -7 210 68 l-1 35 -155 0 c-131
0 -155 2 -156 15 -1 8 -2 131 -3 273 l-1 257 -50 0 -50 0 2 -322z"/>
</g>
</svg>
