<?xml version="1.0" encoding="utf-8"?>
<!-- Generator: Adobe Illustrator 26.2.1, SVG Export Plug-In . SVG Version: 6.00 Build 0)  -->
<svg version="1.1" id="Layer_1" xmlns="http://www.w3.org/2000/svg" xmlns:xlink="http://www.w3.org/1999/xlink" x="0px" y="0px"
	 viewBox="0 0 1920 1080" style="enable-background:new 0 0 1920 1080;" xml:space="preserve">
<style type="text/css">
	.st0{fill:#FFFFFF;}
</style>
<g>
	<g>
		<path class="st0" d="M800.1,423.7c0,0,59.2-49.4,104.4-5.2c0,0,23.4,25.3,34.9,28.5c0,0-86.9,62.2-140.8-7.4
			c0,0,50.1,15.3,74.8,5.2C873.4,444.8,807.8,439.8,800.1,423.7z"/>
		<path class="st0" d="M882,363.1c0,0,42.6-35.5,75.2-3.8c0,0,16.8,18.2,25.1,20.5c0,0-62.6,44.8-101.4-5.3c0,0,36.1,11,53.9,3.7
			C934.8,378.3,887.5,374.7,882,363.1z"/>
		<path class="st0" d="M812,319.7c0,0,20.6-75,82.8-69.4c2.9,0.3,5.8,0.7,8.7,1.3c8.5,1.7,35.5,6.8,45.7,3.2
			c0,0-38.6,108.2-128.9,79.9c0,0,53.6-17.2,69.2-41.3C889.6,293.3,828.6,329.2,812,319.7z"/>
		<path class="st0" d="M797.5,252.1c0,0-14.9-69,37.5-90.7c2.5-1,5-1.9,7.6-2.6c7.5-2.2,31.4-9.5,38.1-16.6
			c0,0,14.4,103.2-70.1,118.4c0,0,35.9-36.4,38.3-62.3C848.8,198.3,814.9,252.8,797.5,252.1z"/>
		<path class="st0" d="M733.9,309.6c0,0-16.1-44.7,16.9-63.9c1.6-0.9,3.2-1.7,4.8-2.4c4.8-2.1,20.1-9.1,24-14.5
			c0,0,18.9,67.7-36.3,85.4c0,0,20.7-27.5,20-45.1C763.4,269.1,745.6,308.5,733.9,309.6z"/>
		<path class="st0" d="M692.8,219.2c0,0-52.9-29.9-36.8-76c0.8-2.2,1.7-4.3,2.7-6.4c2.9-6.1,11.9-25.6,11.1-34
			c0,0,74.6,49.8,36,112.8c0,0-2.8-43.9-18.1-60.3C687.6,155.4,703.1,208.4,692.8,219.2z"/>
		<path class="st0" d="M677.5,328.3c0,0-71.5-15.4-69.5-74.1c0.1-2.8,0.4-5.5,0.8-8.3c1.2-8.1,4.5-33.7,0.6-43.1
			c0,0,103.6,30.5,81.7,116.8c0,0-19-49.5-42.4-62.8C648.7,256.8,685.5,312.2,677.5,328.3z"/>
		<path class="st0" d="M623.5,184.1c0,0-34.5-7.4-33.5-35.8c0-1.3,0.2-2.7,0.4-4c0.6-3.9,2.2-16.2,0.3-20.8c0,0,50,14.7,39.4,56.4
			c0,0-9.1-23.9-20.5-30.3C609.6,149.6,627.4,176.3,623.5,184.1z"/>
		<path class="st0" d="M574.7,282.1c0,0-58.5-6.5-61.7-53.7c-0.2-2.2-0.1-4.5,0-6.7c0.3-6.5,0.9-27.3-3-34.5c0,0,85.4,16,74.9,86.9
			c0,0-19.2-38.1-39.1-46.8C545.8,227.2,579.8,268.5,574.7,282.1z"/>
		<path class="st0" d="M626.5,374c0,0-72.1,33.2-108.7-19c-1.7-2.5-3.3-5.1-4.7-7.7c-4.2-7.8-18.1-32.2-27.5-37.8
			c0,0,109.8-41,147.1,48.1c0,0-48.7-30.6-77.8-26.9C554.9,330.8,623,354.8,626.5,374z"/>
		<path class="st0" d="M502.2,279c0,0-39.4,6.5-50.2-23.8c-0.5-1.4-0.9-2.9-1.3-4.4c-1-4.3-4.5-18-8.3-22c0,0,58.8-5.2,64.9,43
			c0,0-19.5-21.4-34.2-23.5C473.2,248.5,503,269.2,502.2,279z"/>
		<path class="st0" d="M501.4,395.4c0,0-41.9,14.4-59.4-16.6c-0.8-1.5-1.5-3-2.2-4.5c-1.9-4.5-8.3-18.9-13.2-22.6
			c0,0,63.4-16.7,79.1,35c0,0-25.4-19.7-41.8-19.3C464,367.4,500.5,384.5,501.4,395.4z"/>
		<path class="st0" d="M592.4,438c0,0-31.8,57-81.5,40c-2.3-0.8-4.6-1.8-6.9-2.8c-6.6-3.1-27.6-12.6-36.6-11.8
			c0,0,53.1-80.5,121.1-39.3c0,0-47.2,3.3-64.7,19.8C523.8,443.9,580.7,426.9,592.4,438z"/>
		<path class="st0" d="M742.8,213.6c0,0-29.9-51.1,6.2-82.1c1.7-1.5,3.5-2.8,5.4-4.1c5.5-3.7,22.6-15.8,26.1-23.2
			c0,0,38.5,78.6-25,112.8c0,0,19.2-38.4,14.3-59.7C769.8,157.2,756.9,209.5,742.8,213.6z"/>
	</g>
	<g>
		<path class="st0" d="M107.8,776.7c-1.7,0-3.1-0.4-4.5-1.2c-0.1-0.1-0.2-0.1-0.3-0.2c-3.1-1.7-6.3-4.8-9.5-9.3
			c-0.7-1.1-1.3-2.4-1.5-3.9c-0.4-1.9-0.6-4.7-0.6-8.2c0-3.8,0.1-6.7,0.2-8.5c0.1-1.3,0.4-4.3,1.4-11c1-7.3,1.2-10.3,1.3-11.8
			c1-9.4,1.7-25,2.4-47.4c0.6-22,1.7-41.3,3.3-57.2c1.8-18.4,5-26.5,7.3-30c2.9-3.8,5.5-4.3,7.3-4.3c0.2,0,0.4,0,0.5,0
			c2.1,0.1,4.5,0.8,6.6,4.8c0.4,0.8,1.1,2.7,2,7c0.8,3.8,1.4,7.9,1.8,12.2c0.7,6.4,1.1,8.5,1.5,9.8c0.9,2.8,3.6,4.7,6.6,4.7
			c3.1,0,5.4-1.6,10.9-6.6c10.5-9.9,22.5-17.2,35.8-22c0.1,0,0.2-0.1,0.3-0.1c3.9-1.6,9.1-2.4,15.3-2.4c6.1,0,11.4,0.8,15.6,2.3
			c5.2,2.7,9.3,6.4,12.7,11.6c0.9,1.3,2.8,4.5,1.9,5.7c-0.2,0.1-0.6,0.2-1.3,0.2c-3.1,0.2-7.8,1.1-14.8,2.8s-15.3,4.9-24.6,9.6
			c0,0-0.1,0-0.1,0.1c-25,13.2-42.4,33.6-51.5,60.7c-4.6,13.6-7.3,30.3-8,49.7c-0.4,18.7-1.6,26.8-2.6,30.3c-1.6,5.5-4.5,9.1-9.1,11
			C111.8,776.2,109.7,776.7,107.8,776.7z"/>
		<path class="st0" d="M267.3,772.6c-2.1,0-4.2-0.1-6.3-0.4c-9.2-1.4-16.5-5.1-22.3-11.4c-5.9-6.4-10.1-15.4-12.3-26.7
			c-0.6-4.3-0.6-11.3-0.2-20.7c0.5-9.5,1.1-16.9,2-22c5.8-23.7,16.5-46.8,31.8-68.5c7.4-10.7,15.5-19,24.1-24.7
			c8.2-5.4,15.6-8.2,21.9-8.2c6.7,0,12.5,1.4,17.9,4.4c5,2.7,8.6,7.1,11.2,13.5c2.7,6.6,3.5,14.2,2.4,22.5
			c-1.5,12.8-6.3,26.3-14.4,40.4c-8.1,14.1-17.8,25.8-28.9,34.8c-7.3,6.1-13.6,10-18.9,11.6c-3.8,1.2-5.7,1.3-6.6,1.3
			c-0.1,0-0.2,0-0.3,0c-3-2-5.1-2.8-7.3-2.8c-0.6,0-1.3,0.1-1.9,0.2c-6.6,1.7-6.1,9.1-5.7,13.2c0.5,7.5,3,13,7.6,16.3
			c3.4,2.5,8.1,3.7,14.2,3.7c1.6,0,3.3-0.1,5.1-0.2c7.5-0.4,15-2.4,22.3-5.9c7.1-3.5,12.9-7.3,17.3-11.5c3.7-3.6,7.6-7.1,11.6-10.4
			c2.7-2.3,4.5-3.7,5.8-4.5c-0.3,1-1.1,2.9-2.6,6.3c-7.7,15.7-18.7,28.5-32.7,38C290.6,768.6,278.9,772.6,267.3,772.6z M270.2,661.7
			c-0.1,0.2-0.2,0.4-0.3,0.7c-2.3,5.3-3.8,8.7-4.5,10.7c-0.8,2.1-2.1,5.6,0.2,8.9c1.3,1.9,3.5,3,5.8,3c0.4,0,0.9,0,1.3-0.1
			c3.5-0.7,6.8-3.4,12.3-10c4.2-5,8.6-11.3,13-18.8c4.7-7.8,7.7-14.4,9.1-20.2c0.4-1.4,1.3-5.2-1.1-8.3c-1.4-1.8-3.5-2.8-5.8-2.8
			c-2.5,0-4.4,1.3-5.3,1.9c-6.5,4.4-13.8,14.5-23,31.8L270.2,661.7z"/>
		<path class="st0" d="M410.6,766.1c-1.6,0-3.2-0.3-4.9-1c-0.2-0.1-0.4-0.1-0.6-0.2c-3.7-1.1-6.6-3.2-8.9-6.3
			c-2.7-3.7-5.4-9.5-8.1-17.4c-5.6-16.5-10.5-35.9-14.5-57.5c-4.1-21.7-6.6-41.3-7.5-58.5c-0.3-6.5-0.2-11.9,0.2-15.8
			c0.4-3.5,1.2-6.6,2.3-9.1c1.1-2.5,2.8-5,5.1-7.6c2.5-2.5,5.1-3.7,8.1-3.8h0.4c2.7,0,4.9,1,6.9,3c1.3,1.3,2.2,2.6,2.8,4
			c0.5,1.1,1.1,3.3,1.6,7.2c0.4,3.6,0.8,8.8,1.1,15.7c0.6,19.6,3.1,40.5,7.3,62c0.3,1.5,0.6,3.3,0.9,5.4c0,0.1,0,0.2,0.1,0.4
			c1.1,5.7,2.5,12.7,9.2,12.7c5.4,0,7.7-4.9,10.6-11.1c0.1-0.1,0.1-0.2,0.2-0.4c0.6-1.5,1.1-2.7,1.4-3.7c3.8-7.8,9.9-19.3,18.2-34.3
			c8.5-15.3,16.9-29.8,24.9-42.9c9.6-15.9,13.2-21,14.5-22.6c-0.3,2.3-0.5,3.9-0.6,4.9c0,0.3-0.3,1.7-1.5,6.7
			c-4.7,18.1-13.5,46.7-26.1,84.9c-12.5,37.9-21.9,63-27.7,74.4c-2.5,4.7-5.6,7.9-9.7,9.8C414.4,765.6,412.5,766.1,410.6,766.1z"/>
		<path class="st0" d="M676.3,898.1c-6.2-6.6-15.1-26.6-22.5-84.4c-6.1-48-9.8-93.8-10.9-136.2c-1.1-42.3-1.2-77.4-0.2-104.2
			c1.1-29.1,1.1-29.1-3.2-31.4c-0.1,0-0.1-0.1-0.2-0.1c-1-0.5-2.1-0.7-3.2-0.7c-1.1,0-2.6,0.1-11,1.8c-6.4,1.3-12.8,2.7-19,4.1
			c-8.6,1.9-12.1,3.1-14,5.6c-0.2,0.3-0.4,0.6-0.6,0.9c-2.2,3.9-0.2,7.2,2.5,11.7c0.1,0.1,0.1,0.2,0.2,0.3
			c6.9,10.1,11.4,23.9,13.1,40.9c1.8,17.6,1.5,34.7-0.9,50.7c-2.5,16.3-6.3,33.4-11.3,50.9c-6,21.1-14.2,37.3-24.4,48.2
			c-9.1,9.8-19,14.5-30.2,14.5c-0.6,0-1.2,0-1.8,0c-7.1-0.3-13.8-3.1-20.5-8.7c-20.3-19.4-26.6-61.9-18.7-126.5
			c2.5-20,6.3-40.2,11.3-60.2c4.9-19.8,9.7-34.6,14.3-44c0-0.1,0.1-0.2,0.1-0.3c1.6-3.7,4.1-7.5,7.4-11.2c3.1-3.5,6.1-5.9,8.7-7.1
			c2.7-1.3,5.1-1.9,7.1-1.9c0.8,0,1.6,0.1,2.3,0.3c3,0.9,5.3,2.2,6.9,3.8c1,1,1.4,1.7,1.6,1.9c0.2,5.6,4.2,9.5,9.8,9.5
			c0.6,0,1.2,0,1.8-0.1c1.7-0.2,4.9-0.8,15.2-3.5l53.3-13.3c0.5-0.1,0.9-0.3,1.4-0.5c4-2,4.7-5.1,6.2-20.3c1.6-18.2,4.3-38.4,8-60
			c3.7-19.1,7.2-27.6,9.4-31.4c3.1-5.2,6.2-5.9,8.6-5.9c2,0,4.2,0.5,6.2,4.3c0.1,0.3,0.8,2.3,1.2,9.6c0.3,6.1,0.2,13.8-0.2,22.7
			c-0.5,9.1-1,17.6-1.4,25.2c-0.5,7.4-1,15.4-1.7,24.5c-1,13.3-1,15-1,15.5c0,2.1,0.9,4,2.5,5.3c1.3,1,2.8,1.6,4.4,1.6
			c0.4,0,0.9,0,1.3-0.1c5.2-1,10.7-2.1,16.3-3.4c17.8-3.4,38.4-6.4,61.3-8.9c1.7-0.1,3.3-0.2,4.8-0.2c6.5,0,11.5,1.3,14.8,4
			c3.8,3.1,5.4,6.5,5,11.3c-0.4,5.5-3,11.2-7.7,17.1c-0.1,0.1-0.2,0.2-0.2,0.3c-2.3,3.2-3.9,4.6-4.8,5.2c0.4-2.1,0.8-4.1,1.1-6
			c0.4-2.7,0.5-5,0.3-7.1c-0.4-3.6-3.2-7.8-9.8-7.8c-1,0-2,0.1-3.1,0.3c-3.7,0.6-9,2.2-16.2,4.9c-0.1,0-0.1,0-0.2,0.1
			c-13.7,5.6-30.4,10.9-49.7,15.9c-16.9,4.5-20.6,5.8-22.2,7.9c-2.5,2.8-3.4,11.3-6.4,67.1c-0.7,13.9-1,42.8-1.2,88.3
			c-0.2,44.7-0.1,79.8,0.2,104.3c1,34.7,2,58,3.1,71.5c1.2,14.2,3.3,24.8,6.5,32.6c0.1,0.2,0.1,0.3,0.2,0.5c0.1,0.3,0.3,0.5,0.4,0.8
			C676.6,898.3,676.5,898.2,676.3,898.1z M549.9,564.5c-2.8,0-5.4,1.6-6.6,4.1c-0.7,1.4-1.6,3.9-5.1,19.2
			c-2.4,10.6-4.3,19.5-5.5,26.5c-7.7,42.9-9.3,77-4.8,101.2c2.7,13.3,5.6,24.2,14,24.2c5.2,0,8.5-4.3,9.8-6
			c7.4-8.9,13.7-24.4,19.4-47.4c5.5-22.4,8.3-44,8.3-64.1c0-14.2-2.3-26.2-6.8-35.6c-1.3-3.2-3.3-6.5-6.3-10.1
			c-2.9-3.4-5.6-6.2-8.4-8.3C555.1,565.9,552.7,564.5,549.9,564.5z"/>
		<path class="st0" d="M725,788.7c-2.1,0-4-0.4-5.7-1.3c-4.5-2.6-7.3-6-8.7-10.3c-1.4-5.2-1.4-40.8,14.1-220.5
			c7.5-93.4,14.6-149.7,21.1-167.5c5.9-15.5,12.7-15.5,15-15.5c0.4,0,0.8,0,1.2,0.1c0.1,0,0.1,0,0.1,0c5.7,0.4,8.4,2.9,9.4,8.8
			c1.4,8.2,0.8,19.1-1.9,32.5c0,0.1,0,0.1,0,0.2c-4.1,24.5-7.2,46.6-9.1,65.8c-1.9,19-5.3,58-10,116l-4.3,64c-0.2,3.3,1.9,6.2,5,7.1
			c0.6,0.2,1.3,0.3,1.9,0.3c2.5,0,4.9-1.4,6.1-3.7l22.4-42.4c8.6-15.7,13.7-22,16.5-24.6c3.3-3.1,7.5-4.6,12.7-4.6
			c3.6,0,6.6,0.7,9.2,2.2c2.8,1.6,5.1,3.5,6.8,5.6c1.1,1.5,3,4.7,5,11.8c1.8,6.2,3.2,12,4.1,17.1c0.9,5.2,2.2,12.8,3.8,23.2
			c0,0.1,15.7,86.3,15.7,86.3c2.8,21.2,4.9,25.2,7,27.5c0.3,0.4,1,1.3,0.9,1.7c-0.3,1-1.4,2-3.2,2.9c-1.1,0.5-2,0.8-3,0.8
			c-0.7,0-1.3-0.1-2-0.4c-0.1,0-0.2-0.1-0.3-0.1c-3.6-1.1-11-5.9-20.6-25.5c0-0.1-0.1-0.2-0.1-0.3c-5.1-9.3-9.2-19.8-12.3-31.1
			c-3.1-11.6-6.6-28.8-10.3-51c-2.7-21.3-3.4-22-5.3-23.9c-1.3-1.3-3.1-2.1-4.9-2.1c-4.2,0-6.5,3.4-7.7,5.2
			c-1.1,1.6-2.4,3.8-3.9,6.8c-1.5,2.9-3.2,6.1-4.8,9.5c-1.7,3.4-3.6,7.2-5.5,11.3c-2,4.2-3.9,8.3-5.6,12.1c-1.7,3.9-3.4,7.7-5,11.1
			c-1.6,3.6-3,6.8-4,9.5c-5.4,13.6-11.6,32.1-18.3,54.8c-5.1,18.1-8.1,23.7-9.4,25.5c-1.8,2.4-4.5,4-8.3,4.8
			C727.4,788.5,726.2,788.7,725,788.7z"/>
		<path class="st0" d="M917.2,818.6c-2.7,0-5.4-0.3-8-1c-0.1,0-0.1,0-0.2,0c-4.7-1.1-8.6-2.7-11.5-4.8c-2.8-2.1-5.3-5.1-7.3-8.9
			c-0.1-0.2-0.2-0.3-0.3-0.5c-1.5-2.4-2.3-5.9-2.3-10.6c0-5,1-9.6,3.1-13.9c1.7-3.5,3.2-3.5,3.9-3.5c0.1,0,0.4,0,0.4,0
			c0.5,1.1,0.8,1.9,1.1,2.6l0,0c0,0,0.3,0.8,0.8,3.5c0.6,2.8,1,4.6,1.4,5.8c0.9,2.8,3.6,4.7,6.6,4.7c11.7,0,22-4.4,30.6-13
			c0.2-0.2,0.4-0.4,0.6-0.7c3.5-4.6,6.7-10.1,9.4-16.5c3-6.8,4.4-12.8,4.4-18.2c0-0.1,0-0.3,0-0.4c-0.4-5.9-2.1-12.3-5.1-19.3
			c-2.9-6.6-8.7-16.8-17.9-31.2c-8.2-13.3-13.8-25.6-16.8-36.5c-2.9-10.4-3.1-21-0.7-31.4c2.4-10.3,8-20.2,16.6-29.4
			c12.2-12.5,24.8-19.8,37.3-21.8c2-0.3,4-0.5,5.8-0.5c8.2,0,13.9,3.2,17.9,10c0.1,0.2,0.2,0.3,0.3,0.5c3.2,4.5,3.4,9.1,0.4,14.7
			c-1.2,2.4-2.5,3.8-3.5,4c-2.2,0.4-4.8,0.6-7.7,0.6c-0.8,0-1.6,0-2.4,0c-0.4,0-0.8,0-1.1,0c-5.4,0-10.4,1.4-14.8,4.2
			c-9.2,5.9-15.2,12-18.3,18.6c-0.1,0.1-0.1,0.2-0.2,0.4c-1.6,4-2.4,8.9-2.4,15c0,0.1,0,0.2,0,0.4c0.4,6.9,2.7,15.6,7.2,26.6
			c4.1,10.1,8.6,20.5,13.2,30.8c4.5,9.9,8.5,20.4,11.9,31.2c3.2,10.3,4.6,21,4,31.9c-0.6,10.4-3.9,20.2-9.8,28.9
			c-6.6,9.7-15.4,17.3-26.3,22.4C930.6,816.8,923.6,818.6,917.2,818.6z"/>
		<path class="st0" d="M1037.7,765.6c-1.5,0-2.9-0.1-4.1-0.4c-0.1,0-0.3-0.1-0.4-0.1c-7.5-1.3-13.8-5.4-19.3-12.6
			c-5.7-7.5-9.2-16.4-10.3-26.5c-0.5-7.7,1.2-18.4,5.2-32c4.1-13.9,9.8-27.1,16.8-39.3c4.6-8.2,10.4-16.4,17.3-24.4
			c7-8.1,14.4-15.4,22.1-21.6c7.4-6.1,14.3-10.4,20.6-13c0.1,0,0.2-0.1,0.3-0.2c5.1-2.4,10-3.6,14.7-3.6c4.4,0,7.9,0.7,10.3,2.1
			c2.9,1.7,5.4,3.8,7.7,6.3c2.3,2.6,2.3,4.3,2.3,4.9c0,2-0.4,3.7-1.2,5.4c-0.3,0.3-0.9,0.8-2,1.5c-1.5,0.9-3.2,1.7-5,2.3
			c-2.4,0.9-5.3,2.1-8.6,3.5c-3.2,1.4-6.5,3-10.3,4.9c-4.1,2-8.5,5.2-13.4,9.6c-4.6,4.1-9.4,8.8-14.3,14l-0.1,0.1
			c-10.4,11.7-18.9,26.2-25.4,43.1c-6.7,17.5-9.2,31.4-7.8,42.5c0,0.1,0,0.1,0,0.2c1.6,10.6,8.7,11.5,10.8,11.5
			c6.6,0,14.8-5.7,32.8-33.5c8.7-13.2,15.3-24.6,19.5-33.8c12.7-26.6,17.3-34,19-36.1c3.4-3.7,6.9-5.4,11-5.4c1.2,0,2.5,0.2,3.9,0.5
			c5.8,1.3,9.3,4.7,11.2,10.9c0.3,3.3,0.6,22.3-0.6,107.7c0,3.7,0.4,7.3,1,10.8c0,0.1,0,0.1,0,0.2c-0.1,0-0.1,0-0.2,0
			c-0.9,0.2-1.8,0.3-2.6,0.3c-1.4,0-2.5-0.3-3.5-0.9c-0.1,0-0.2-0.1-0.3-0.1c-8.4-4.6-15-18-19.3-39c0-1.5-0.2-3.1-0.6-5.1
			c0-0.1,0-0.2,0-0.3c-0.6-3.1-2.1-10.3-8.7-10.3c-4,0-6.5,2.7-11.2,8.9c-0.1,0.1-0.1,0.2-0.2,0.2c-2.2,3.2-4.1,5.8-5.7,8.1
			c-9.4,12.8-17.7,22.1-24.5,27.8c-6.4,5.3-13.1,8.6-19.8,10c-0.1,0-0.2,0-0.2,0.1C1042.2,765.3,1039.8,765.6,1037.7,765.6z"/>
		<path class="st0" d="M1219.3,766.1c-1.6,0-3.2-0.3-4.9-1c-0.2-0.1-0.4-0.1-0.6-0.2c-3.7-1.1-6.6-3.2-8.9-6.3
			c-2.7-3.7-5.4-9.5-8.1-17.4c-5.6-16.5-10.5-35.9-14.5-57.5c-4.1-21.7-6.6-41.4-7.5-58.5c-0.3-6.5-0.2-11.9,0.2-15.8
			c0.4-3.5,1.2-6.6,2.3-9.1c1.1-2.5,2.8-5,5.1-7.6c2.5-2.5,5.1-3.7,8.1-3.8h0.4c2.7,0,4.9,1,6.9,3c1.3,1.3,2.2,2.6,2.8,4
			c0.5,1.1,1.1,3.3,1.6,7.2c0.4,3.6,0.8,8.9,1.1,15.7c0.6,19.6,3.1,40.5,7.3,62c0.3,1.5,0.6,3.3,0.9,5.4c0,0.1,0,0.3,0.1,0.4
			c1.1,5.7,2.5,12.7,9.2,12.7c5.4,0,7.7-4.9,10.6-11.1c0.1-0.1,0.1-0.2,0.2-0.4c0.6-1.5,1.1-2.7,1.4-3.7c3.8-7.8,9.9-19.3,18.2-34.3
			c8.5-15.3,16.9-29.7,24.9-42.9c9.6-15.9,13.2-21,14.5-22.6c-0.3,2.3-0.5,3.9-0.6,4.9c0,0.3-0.3,1.7-1.5,6.7
			c-4.7,18.1-13.5,46.7-26.1,84.9c-12.5,37.9-21.9,63-27.7,74.4c-2.5,4.7-5.6,7.9-9.7,9.8C1223.1,765.6,1221.2,766.1,1219.3,766.1z"
			/>
		<path class="st0" d="M1324.7,765.6c-1.5,0-2.9-0.1-4.1-0.4c-0.1,0-0.3-0.1-0.4-0.1c-7.5-1.3-13.8-5.4-19.3-12.6
			c-5.7-7.5-9.2-16.4-10.3-26.5c-0.5-7.7,1.2-18.4,5.2-32c4.1-13.9,9.8-27.1,16.8-39.3c4.6-8.2,10.4-16.4,17.3-24.4
			c7-8.1,14.4-15.4,22.1-21.6c7.4-6.1,14.3-10.4,20.6-13c0.1,0,0.2-0.1,0.3-0.2c5.1-2.4,10-3.6,14.7-3.6c4.4,0,7.9,0.7,10.3,2.1
			c2.9,1.7,5.4,3.8,7.7,6.3c2.3,2.6,2.3,4.3,2.3,4.9c0,2-0.4,3.7-1.2,5.4c-0.3,0.3-0.9,0.8-2,1.5c-1.5,0.9-3.2,1.7-5,2.3
			c-2.4,0.9-5.3,2.1-8.6,3.5c-3.2,1.4-6.5,3-10.3,4.9c-4.1,2-8.5,5.2-13.4,9.6c-4.6,4.1-9.4,8.8-14.3,14l-0.1,0.1
			c-10.4,11.7-18.9,26.2-25.4,43.1c-6.7,17.5-9.2,31.4-7.8,42.5c0,0.1,0,0.1,0,0.2c1.6,10.6,8.7,11.5,10.8,11.5
			c6.6,0,14.8-5.7,32.8-33.5c8.7-13.2,15.3-24.6,19.5-33.8c12.7-26.6,17.3-34,19-36.1c3.4-3.7,6.9-5.4,11-5.4c1.2,0,2.5,0.2,3.9,0.5
			c5.8,1.3,9.3,4.7,11.2,10.9c0.3,3.3,0.6,22.3-0.6,107.7c0,3.7,0.4,7.3,1,10.8c0,0.1,0,0.1,0,0.2c-0.1,0-0.1,0-0.2,0
			c-0.9,0.2-1.8,0.3-2.6,0.3c-1.4,0-2.5-0.3-3.5-0.9c-0.1,0-0.2-0.1-0.3-0.1c-8.4-4.6-15-18-19.3-39c0-1.5-0.2-3.1-0.6-5.1
			c0-0.1,0-0.2,0-0.3c-0.6-3.1-2.1-10.3-8.7-10.3c-4,0-6.5,2.7-11.2,8.9c-0.1,0.1-0.1,0.2-0.2,0.2c-2.2,3.2-4.1,5.8-5.7,8.1
			c-9.4,12.8-17.7,22.1-24.5,27.8c-6.4,5.3-13.1,8.6-19.8,10c-0.1,0-0.2,0-0.2,0.1C1329.2,765.3,1326.9,765.6,1324.7,765.6z"/>
		<path class="st0" d="M1466.6,597.5c-1.1,0-1.9-0.2-2.6-0.5c-0.1,0-0.1-0.1-0.2-0.1c-1.5-0.7-1.8-1.3-1.8-1.3
			c-0.2-1.3,0-2.9,0.6-4.7c1.1-2.9,3-7.7,5.8-14.7c5.6-12.8,9.1-22.6,10.8-29.7c1.9-8.2,2.3-13.2,1.1-16.8c0-0.7,0-3.4,2.1-11.2
			c2-4.6,5.1-7,10.1-7.8c0.9-0.2,1.8-0.2,2.6-0.2c3.6,0,6.5,1.5,9.2,4.9c4,5,5.8,12.5,5.4,22.1c-0.4,10.5-3.3,21.4-8.6,32.6
			c-4.5,9.3-11.2,16.5-20.4,22.1C1473.3,596.6,1468.9,597.5,1466.6,597.5z"/>
		<path class="st0" d="M1524.5,853.3c-2.1,0-4-0.3-5.7-0.9l-0.5-0.2l-0.5-0.2c-5.9-2.8-9.3-8-9.3-14.1v-0.8c0-2.5,0.7-5.2,2.2-7.9
			c0.9-1.8,2.5-4.3,5-7.8c0-0.1,0.1-0.1,0.1-0.2c2.1-2.9,4.8-7,8.2-12.2l11.2-17.2c0,0,0.8-1.2,0.8-1.3c6.4-10.3,13.3-22,20.5-34.7
			c7.3-13,13.9-25.4,19.6-37c18.3-36.2,30.1-66.3,34.9-89.2c1.5-7.3,2.3-13.9,2.3-19.6c0-3.3-0.3-6.3-0.8-8.9c0-0.2-0.1-0.4-0.2-0.6
			c-1.1-3.8-3.4-6.6-6.8-8.5c-0.1,0-0.1-0.1-0.2-0.1c-1.5-0.7-2.5-1-3.1-1.2c-0.1,0-0.2,0-0.3-0.1c-0.8-0.1-2.2-0.3-4.6-0.3
			c-6.6,0-13.3,1.8-20,5.4l-0.2,0.1c-11.6,5.8-22.1,14.1-31.2,24.8c-8.1,9.9-13.2,18.2-15.2,24.7c-2.6,8.4-3.2,13-3.2,15.2
			c0,1.6,0.2,3.2,0.5,4.6c0.6,2.6,2.6,4.6,5.1,5.2c2.7,0.7,5.3,2.2,7.6,4.4l0.3,0.3l0.3,0.4c2.3,2.9,3.6,6.3,3.6,9.8v1.8l-0.2,0.9
			c-0.9,4.2-3.5,7.8-7.2,10.1l-0.2,0.1c-2.4,1.4-5,2-7.8,2c-2.4,0-5-0.6-7.7-1.7l-0.2-0.1c-13.4-6.8-21.7-17.7-24.1-31.8v-0.1v-0.1
			c-0.2-2.2-0.3-4.2-0.3-6.3c0-7.3,1.6-15.2,4.8-23.5c0,0,0-0.1,0.1-0.1c5.9-13.6,14.8-26.6,26.4-38.7
			c11.6-12.1,24.6-21.6,38.7-28.3c11.8-5.6,23-8.4,33.5-8.4c6.7,0,13.3,1.2,19.6,3.5l0.2,0.1c13.5,5.4,23.1,16.4,27.6,31.9l0.1,0.2
			c1.3,5,2,10.6,2,16.5c0,16.4-5.4,36.9-16.1,61l-0.1,0.2c-1.6,3.4-3.8,7.9-6.8,13.8c-2.8,5.7-5.5,10.8-7.9,15.3
			c-10.6,20-27.6,48.3-50.3,83.9c-1.6,2.5-1.4,5.8,0.5,8.1c1.3,1.7,3.3,2.6,5.4,2.6c0.8,0,1.6-0.1,2.4-0.4
			c6.6-2.4,13.5-4.8,20.4-7.1c7.9-2.6,14.9-4.6,20.9-5.9c6.1-1.3,12.3-2.2,18.4-2.7h1.6c3.1,0,5.7,1,7.7,2.9
			c1.8,1.8,2.8,4.2,2.8,6.8s-1.1,5.1-3,7c-2,2-4.5,2.5-6,2.9c-1.3,0.3-2.7,0.5-4.3,0.7c-0.1,0-0.2,0-0.4,0
			c-4.9,0.8-11.2,2.5-18.3,4.9c-0.1,0-0.1,0-0.2,0.1c-16.7,5.7-32.4,12.8-46.6,21.3c-2.2,1.3-5.1,3.1-8.9,5.5
			c-3.9,2.5-6.8,4.4-9.3,6.1c-13.5,9.1-18.5,11.4-21.4,12.2l-0.4,0.1C1528.4,853,1526.5,853.3,1524.5,853.3z"/>
		<path class="st0" d="M1687.1,852.6c-3.7,0-6.6-0.2-9-0.5h-0.2c-5.8-1-10.5-3.2-13.9-6.6l-0.5-0.5l-0.4-0.6c-1.4-1.9-2.5-4-3.4-6.1
			c-1.1-2.6-1.6-4.9-1.6-7.1c0-1.7,0.3-3.3,1-4.7c0-0.1,0.1-0.1,0.1-0.2c1.1-2.6,3-4.6,5.4-5.8c1.8-0.9,3.5-1.3,5.1-1.3
			c1.9,0,3.8,0.4,5.5,1.3c1.5,0.8,2.8,1.8,3.8,3.2c0,0,0,0,0.1,0.1c0.2,0.2,0.3,0.4,0.5,0.6c1.3,1.9,3.5,3.1,5.8,3.1
			c0.2,0,0.4,0,0.6,0c2.6-0.2,5.5-0.7,8.6-1.5c0.1,0,0.2,0,0.3-0.1c19.1-4.4,37.4-13.6,54.3-27.4l0.1-0.1
			c17.5-13.9,30.5-28.2,38.7-42.5c0-0.1,0.1-0.2,0.1-0.2c4.2-8.1,5.1-13.5,5.1-16.6c0-1-0.1-1.9-0.2-2.8c-0.1-0.5-0.3-1.1-0.5-1.6
			c-1.6-3.7-4.9-6.4-10.3-8.5c-5.7-2.1-12.8-3.2-21.2-3.2c-4.5,0-9.1,0.2-13.6,0.7c-4.6,0.5-10.8,1.3-18.3,2.5
			c-9.3,1.6-16.1,2.4-21,2.4c-5.9,0-10.6-1.1-14.5-3.4c-0.1-0.1-0.2-0.1-0.3-0.2c-4-2.1-7.2-5.2-9.3-9.2c-1.9-3.7-2.8-7.4-2.8-11
			c0-1.3,0.1-2.6,0.3-3.9c0.6-3.6,1.9-7.4,4.2-11.9c2-3.9,5-8.9,8.9-14.7c0.1-0.1,0.1-0.2,0.2-0.3c8.2-12.1,19.9-27.2,34.9-44.7
			c2.1-2.5,2.2-6.1,0.2-8.7c-1.3-1.8-3.4-2.7-5.5-2.7c-1,0-2,0.2-3,0.7c-4.8,2.3-8.5,4-11.6,5.6c-4.4,2.2-6.3,3-7.1,3.4
			c-0.1,0-1.3,0.6-1.3,0.6c-0.7,0.3-1.3,0.8-1.9,1.3l0,0c-0.6,0.1-1.1,0.3-1.7,0.6c-1.1,0.5-2.1,0.9-3.1,1.2
			c-1.6,0.4-3.4,0.6-5.6,0.6h-1.9c-1.6,0-3-0.3-4.4-0.8c-0.9-0.4-1.8-0.9-2.7-1.5l-0.2-0.1c-4.1-2.8-6.2-6.1-6.5-9.8
			c-0.1-1.2-0.1-2-0.1-2.3c0-4.2,1.8-8.2,5.1-11.2c3.7-3.4,7.9-5.2,12.4-5.2c0.1,0,0.7,0,0.8,0c0.9,0,1.9-0.2,2.7-0.6
			c0.4-0.2,1-0.4,1.7-0.7c1.8-0.9,4.3-2,7.4-3.3c2.8-1.3,6.4-2.9,11-5.1c27.4-12.8,47.9-21.5,61-25.8c3.1-1,5.6-1.8,7.4-2.3
			c2.2-0.6,4-1,5.6-1.2c1.5-0.2,3.1-0.3,4.9-0.3h2.5c1.5,0,2.9,0.2,4.2,0.6c0.8,0.3,1.7,0.6,2.6,1.1c1.3,0.7,2.5,1.5,3.6,2.5
			c0.8,0.7,1.4,1.3,2,1.9l0.2,0.2c4,4.4,5.9,9.4,5.9,15.2c0,7.3-3.4,15.2-10.3,24.2c0,0.1-0.1,0.1-0.1,0.2c-1.5,2.1-3.4,4.4-5.5,6.8
			c-2.2,2.4-5.6,6-10.1,10.6c-4.6,4.8-11.8,11.9-20.7,20.8c-8.4,8.5-15.8,16.1-21.4,21.8c-5.1,5.3-9,9.4-11.9,12.5
			c-1.8,2-2.3,5-1.2,7.5c1.1,2.5,3.6,4.1,6.3,4.1h0.1c2.7,0,5.5-0.1,8.3-0.1c2.3,0,4.6,0,7,0c7.2,0.1,12.6,0.2,16.4,0.5h0.3
			c22.9,2.5,39.3,10.1,48.6,22.5l0.1,0.2c4.5,6.4,7.3,14,8.3,22.5c0.2,1.5,0.3,2.9,0.3,4.4c0,14.5-7.1,30.7-21,48
			c-2.3,3-5.6,6.5-9.9,10.7c-4.1,4-7.6,7.4-10.5,10l-0.2,0.2c-19.2,16.3-39,28-58.6,34.8l-0.1,0.1c-4.6,1.5-9.7,2.9-15.3,4.1
			c-5.7,1.3-11,2.1-16,2.6C1693.9,852.5,1690.6,852.6,1687.1,852.6z"/>
	</g>
</g>
</svg>
