<?xml version="1.0" encoding="UTF-8" standalone="no"?>
<!-- Created with Inkscape (http://www.inkscape.org/) -->

<svg
   width="1920"
   height="1080"
   viewBox="0 0 1920 1080"
   version="1.1"
   id="SVGRoot"
   xmlns="http://www.w3.org/2000/svg"
   xmlns:svg="http://www.w3.org/2000/svg">
  <defs
     id="defs6445" />
  <g
     id="layer1">
    <path
       style="fill:none;fill-opacity:1;stroke:#000000;stroke-width:1;stroke-dasharray:none;stroke-opacity:1"
       id="path347"
       d="m 898.68979,-690.17352 a 134.57175,126.08896 0 0 1 -67.28588,109.19624 134.57175,126.08896 0 0 1 -134.57175,0 134.57175,126.08896 0 0 1 -67.28586,-109.19624"
       transform="scale(1,-1)" />
    <path
       id="rect553"
       style="fill:none;stroke:#000000;stroke-width:0.5;stroke-dasharray:none"
       d="m 731.65536,567.83613 v -15.19347 c 0,-1.45027 1.16754,-2.61782 2.61781,-2.61782 h 59.68975 c 1.45027,0 2.61781,1.16755 2.61781,2.61782 v 15.19347" />
    <path
       style="fill:none;stroke:#000000;stroke-width:0.5;stroke-dasharray:none;stroke-opacity:1"
       id="path583"
       d="m 771.65817,-527.51477 a 7.5401239,3.8957305 0 0 1 -3.77007,3.3738 7.5401239,3.8957305 0 0 1 -7.54012,0 7.5401239,3.8957305 0 0 1 -3.77006,-3.3738"
       transform="scale(1,-1)" />
    <rect
       style="fill:none;fill-opacity:0;stroke:#000000;stroke-width:0.45;stroke-dasharray:none;stroke-opacity:1"
       id="rect8496"
       width="3.2148268"
       height="3.6952031"
       x="762.51062"
       y="527.45331" />
    <rect
       style="fill:none;fill-opacity:0;stroke:#000000;stroke-width:0.45;stroke-dasharray:none;stroke-opacity:1"
       id="rect8498"
       width="3.1171637"
       height="5.4451413"
       x="762.55945"
       y="536.3197" />
    <g
       id="g17651">
      <rect
         style="fill:none;fill-opacity:0;stroke:#000000;stroke-width:0.690822;stroke-dasharray:none;stroke-opacity:1"
         id="rect10013"
         width="300.13828"
         height="8.1150427"
         x="614.04889"
         y="689.92224"
         ry="2.6627483" />
      <path
         id="rect12267"
         style="fill:none;fill-opacity:0;stroke:#000000;stroke-width:0.690822"
         d="m 908.41526,698.03416 c 3.19765,0 5.77192,0.65905 5.77192,2.13422 v 2.78954 c 0,1.47517 -2.57427,2.66275 -5.77192,2.66275 H 619.82082 c -3.19764,0 -5.77192,-1.18758 -5.77192,-2.66275 v -2.78954 c 0,-1.47517 2.18318,-2.14727 5.38083,-2.14727" />
      <path
         id="path13722"
         style="fill:none;fill-opacity:0;stroke:#000000;stroke-width:0.690822"
         d="m 908.41526,705.61753 c 3.19765,0 5.77192,0.65905 5.77192,2.13422 v 2.78955 c 0,1.47516 -2.57427,2.66274 -5.77192,2.66274 H 619.82082 c -3.19764,0 -5.77192,-1.18758 -5.77192,-2.66274 v -2.78955 c 0,-1.47517 2.18318,-2.14726 5.38083,-2.14726" />
    </g>
    <path
       style="fill:none;fill-opacity:0;stroke:#000000;stroke-width:0.5;stroke-dasharray:none;stroke-opacity:1"
       d="m 756.56842,527.2676 h 15.09925"
       id="path17665" />
    <path
       style="fill:none;stroke:#000000;stroke-width:0.5;stroke-dasharray:none;stroke-opacity:1"
       id="path17667"
       d="m 771.65817,-527.51477 a 7.5401239,3.8957305 0 0 1 -3.77007,3.3738 7.5401239,3.8957305 0 0 1 -7.54012,0 7.5401239,3.8957305 0 0 1 -3.77006,-3.3738"
       transform="scale(1,-1)" />
    <path
       style="fill:none;stroke:#000000;stroke-width:0.5;stroke-dasharray:none;stroke-opacity:1"
       id="path17671"
       d="m 779.30169,-549.87024 a 15.18365,7.8448858 0 0 1 -7.59182,6.79387 15.18365,7.8448858 0 0 1 -15.18365,0 15.18365,7.8448858 0 0 1 -7.59183,-6.79387"
       transform="scale(1,-1)" />
    <path
       style="fill:none;fill-opacity:0;stroke:#000000;stroke-width:0.5;stroke-dasharray:none;stroke-opacity:1"
       d="m 748.91525,549.61973 h 30.40559"
       id="path17673" />
    <path
       style="fill:none;stroke:#000000;stroke-width:0.5;stroke-dasharray:none;stroke-opacity:1"
       id="path17675"
       d="m 779.30169,-549.87024 a 15.18365,7.8448858 0 0 1 -7.59182,6.79387 15.18365,7.8448858 0 0 1 -15.18365,0 15.18365,7.8448858 0 0 1 -7.59183,-6.79387"
       transform="scale(1,-1)" />
    <path
       style="fill:none;fill-opacity:0;stroke:#000000;stroke-width:0.5;stroke-dasharray:none;stroke-opacity:1"
       d="m 754.35604,536.16462 h 19.52401"
       id="path17679" />
    <path
       style="fill:none;stroke:#000000;stroke-width:0.5;stroke-dasharray:none;stroke-opacity:1"
       id="path17681"
       d="m 773.86775,-536.42303 a 9.7497129,5.0373516 0 0 1 -4.87485,4.36247 9.7497129,5.0373516 0 0 1 -9.74971,0 9.7497129,5.0373516 0 0 1 -4.87486,-4.36247"
       transform="scale(1,-1)" />
  </g>
</svg>
